<svg width="16" height="19" viewBox="0 0 16 19" fill="none" xmlns="http://www.w3.org/2000/svg">
<g clip-path="url(#clip0_101_4496)">
<g clip-path="url(#clip1_101_4496)">
<path d="M15.4508 10.0445C15.8902 9.60503 15.8902 8.89136 15.4508 8.4519L9.82578 2.8269C9.38633 2.38745 8.67266 2.38745 8.2332 2.8269C7.79375 3.26636 7.79375 3.98003 8.2332 4.41948L11.9422 8.12495H1.15625C0.533984 8.12495 0.03125 8.62769 0.03125 9.24995C0.03125 9.87222 0.533984 10.375 1.15625 10.375H11.9387L8.23672 14.0804C7.79727 14.5199 7.79727 15.2335 8.23672 15.673C8.67617 16.1125 9.38984 16.1125 9.8293 15.673L15.4543 10.048L15.4508 10.0445Z" fill="#121212"/>
</g>
</g>
<defs>
<clipPath id="clip0_101_4496">
<rect width="15.75" height="18" fill="white" transform="translate(0.03125 0.25)"/>
</clipPath>
<clipPath id="clip1_101_4496">
<path d="M0.03125 0.25H15.7812V18.25H0.03125V0.25Z" fill="white"/>
</clipPath>
</defs>
</svg>
