<svg width="17" height="16" viewBox="0 0 17 16" fill="none" xmlns="http://www.w3.org/2000/svg">
<g clip-path="url(#clip0_101_4772)">
<g clip-path="url(#clip1_101_4772)">
<path d="M3.65937 6.3313C3.9 5.65005 4.29062 5.00942 4.84062 4.46255C6.79375 2.50942 9.95938 2.50942 11.9125 4.46255L12.4469 5.00005H10.875C10.3219 5.00005 9.875 5.44692 9.875 6.00005C9.875 6.55317 10.3219 7.00005 10.875 7.00005H14.8594H14.8719C15.425 7.00005 15.8719 6.55317 15.8719 6.00005V2.00005C15.8719 1.44692 15.425 1.00005 14.8719 1.00005C14.3187 1.00005 13.8719 1.44692 13.8719 2.00005V3.60005L13.325 3.05005C10.5906 0.315674 6.15938 0.315674 3.425 3.05005C2.6625 3.81255 2.1125 4.70942 1.775 5.6688C1.59062 6.19067 1.86563 6.75942 2.38438 6.9438C2.90313 7.12817 3.475 6.85317 3.65937 6.33442V6.3313ZM1.59375 9.04067C1.4375 9.08755 1.2875 9.17192 1.16562 9.29692C1.04062 9.42192 0.95625 9.57192 0.9125 9.73442C0.903125 9.77192 0.89375 9.81255 0.8875 9.85317C0.878125 9.9063 0.875 9.95942 0.875 10.0125V14C0.875 14.5532 1.32187 15 1.875 15C2.42813 15 2.875 14.5532 2.875 14V12.4032L3.425 12.95C6.15938 15.6813 10.5906 15.6813 13.3219 12.95C14.0844 12.1875 14.6375 11.2907 14.975 10.3344C15.1594 9.81255 14.8844 9.2438 14.3656 9.05942C13.8469 8.87505 13.275 9.15005 13.0906 9.6688C12.85 10.35 12.4594 10.9907 11.9094 11.5375C9.95625 13.4907 6.79063 13.4907 4.8375 11.5375L4.83437 11.5344L4.3 11H5.875C6.42812 11 6.875 10.5532 6.875 10C6.875 9.44692 6.42812 9.00005 5.875 9.00005H1.8875C1.8375 9.00005 1.7875 9.00317 1.7375 9.00942C1.6875 9.01567 1.64062 9.02505 1.59375 9.04067Z" fill="#D96919"/>
</g>
</g>
<defs>
<clipPath id="clip0_101_4772">
<rect width="16" height="16" fill="white" transform="translate(0.375)"/>
</clipPath>
<clipPath id="clip1_101_4772">
<path d="M0.375 0H16.375V16H0.375V0Z" fill="white"/>
</clipPath>
</defs>
</svg>
